# xmcd
#
# Track frame offsets:
#	150
#	13227
#	25675
#	40823
#	52876
#	70381
#	85105
#	106181
#	118718
#	136460
#	157441
#	171224
#
# Disc length: 2516 seconds
#
# Revision: 1
# Processed by: cddbd v1.5.1PL2 Copyright (c) Steve Scherf et al.
# Submitted via: audiograbber 1.83.01
#
DISCID=9f09d20c
DTITLE=Pilita Corales - Kapantay ay Langit
DYEAR=1999
DGENRE=Vocal
TTITLE0=Kapantay ang Langit
TTITLE1=Sapagka't Kami'y Tao
TTITLE2=Dahil sa Isang Bulaklak
TTITLE3=Araw-Araw, Gabi-Gabi
TTITLE4=Dito Ba
TTITLE5=Diyos Lamang ang Makakaalam
TTITLE6=May Bukas Pa
TTITLE7=Superstar Ng Buhay Ko
TTITLE8=Init sa Magdamag
TTITLE9=Maging Sino Ka Man
TTITLE10=Kapalaran
TTITLE11=Kung Mahawing Man ang Ulap
EXTD=
EXTT0=
EXTT1=
EXTT2=
EXTT3=
EXTT4=
EXTT5=
EXTT6=
EXTT7=
EXTT8=
EXTT9=
EXTT10=
EXTT11=
PLAYORDER=
